<svg width="80" height="80" viewBox="0 0 210 108" fill="none" xmlns="http://www.w3.org/2000/svg">
<path d="M45.4328 16.9499C53.5313 16.9499 60.0506 19.1875 64.9907 23.6627C70.0118 28.0565 72.5223 34.1591 72.5223 41.9703C72.5223 48.7238 70.2547 54.9891 65.7196 60.7662C61.1844 66.4619 55.2725 71.0185 47.9838 74.4359C40.7761 77.772 33.3659 79.44 25.7533 79.44C24.8625 79.44 24.0526 79.3994 23.3238 79.318L23.9312 75.9006C29.4382 75.1683 34.7427 73.4188 39.8448 70.6524C44.9468 67.8045 49.0771 64.143 52.2355 59.6678C55.4749 55.1112 57.0946 49.985 57.0946 44.2893C57.0946 38.3495 55.3939 33.6302 51.9926 30.1314C48.6722 26.6326 43.6106 24.8832 36.8078 24.8832C31.1388 24.8832 25.3079 26.2257 19.315 28.9109C13.4031 31.596 8.01754 35.0948 3.15843 39.4073L0 35.9898C6.0739 30.3755 12.9981 25.8189 20.7727 22.3201C28.5473 18.7399 36.7673 16.9499 45.4328 16.9499ZM22.8379 102.996L8.13902 108V39.0411L22.8379 34.037V102.996Z" fill="#4338CA"/>
<path d="M100.948 39.2547C106.901 39.2547 112.155 40.8719 116.71 44.1062C121.265 47.3406 124.758 51.5819 127.187 56.8301C129.678 62.0172 130.923 67.479 130.923 73.2154C130.923 79.1349 129.769 84.6882 127.461 89.8754C125.153 95.0016 121.721 99.1513 117.165 102.325C112.671 105.437 107.265 106.993 100.948 106.993C94.9958 106.993 89.7115 105.376 85.0953 102.142C80.4791 98.9072 76.9259 94.6964 74.4356 89.5093C71.9453 84.3221 70.7002 78.8908 70.7002 73.2154C70.7002 67.296 71.8846 61.7426 74.2534 56.5554C76.6222 51.3683 80.0843 47.188 84.6397 44.0147C89.1952 40.8414 94.6313 39.2547 100.948 39.2547ZM97.5772 44.3808C93.9328 44.3808 90.9262 45.5403 88.5574 47.8593C86.2493 50.1173 84.579 52.9855 83.5464 56.4639C82.5139 59.9424 81.9976 63.5124 81.9976 67.1739C81.9976 72.4831 82.7568 77.7923 84.2753 83.1016C85.8545 88.3498 88.2841 92.7436 91.564 96.2831C94.9046 99.8226 99.0956 101.592 104.137 101.592C107.721 101.592 110.666 100.433 112.974 98.1139C115.343 95.7339 117.044 92.8046 118.077 89.3262C119.109 85.7867 119.625 82.2167 119.625 78.6162C119.625 73.49 118.836 68.3029 117.257 63.0547C115.738 57.7454 113.309 53.3211 109.968 49.7816C106.688 46.1811 102.558 44.3808 97.5772 44.3808Z" fill="#4338CA"/>
<path d="M187.208 0C192.689 0 197.209 1.25611 200.768 3.76832C204.422 6.28055 206.249 9.95225 206.249 14.7834C206.249 19.0349 204.759 23.0448 201.777 26.8131C198.892 30.4848 194.949 33.6734 189.949 36.3789C185.044 39.0843 179.61 41.0651 173.648 42.3212L172.061 38.408C177.254 35.9924 181.245 33.0937 184.034 29.7118C186.823 26.33 188.217 22.5617 188.217 18.4068C188.217 15.4115 187.352 13.0442 185.621 11.305C183.986 9.46914 181.63 8.55121 178.552 8.55121C174.225 8.55121 170.57 9.80732 167.589 12.3195C164.608 14.7351 162.396 17.8754 160.953 21.7404C159.511 25.5087 158.789 29.422 158.789 33.4802V77.2507C158.789 80.0528 158.357 82.4684 157.491 84.4975C156.722 86.43 155.424 88.4108 153.596 90.4399L154.462 91.0196C158.789 88.3142 163.358 86.9614 168.166 86.9614C171.34 86.9614 175.138 87.3479 179.562 88.1209C180.235 88.2175 181.582 88.4108 183.601 88.7007C185.717 88.9905 187.881 89.1355 190.093 89.1355C193.459 89.1355 196.44 88.2659 199.037 86.5266C201.729 84.7874 204.23 82.4201 206.538 79.4248L210 81.8887L198.315 107.252C193.411 106.866 187.16 105.9 179.562 104.354C174.946 103.484 170.907 102.808 167.445 102.325C163.983 101.842 160.232 101.6 156.193 101.6C149.749 101.6 143.883 103.436 138.594 107.108L134.266 103.049C136.478 101.213 138.065 99.0877 139.027 96.6721C140.084 94.1599 140.613 90.923 140.613 86.9614V47.6839C140.613 38.7945 142.537 30.7264 146.384 23.4796C150.326 16.2328 155.808 10.532 162.829 6.37717C169.945 2.12572 178.072 0 187.208 0Z" fill="#4338CA"/>
</svg>
